<svg data-v-26affb70="" version="1.1" viewBox="0 0 1024 1024" class="svg-icon svg-fill" style="width: 16px; height: 16px;"><defs></defs><path pid="0" d="M512.013 1023.986a94.971 94.971 0 0 1-51.248-13.926C394.36 969.102 219.01 859.335 145.388 713.012a1372.195 1372.195 0 0 1-93.845-425.041 99.528 99.528 0 0 1 67.12-102.447c44.03-14.642 133.523-45.36 176.12-65.84A744.002 744.002 0 0 0 432.605 32.65l14.438-11.008a110.638 110.638 0 0 1 131.372 0l12.953 9.523a743.95 743.95 0 0 0 137.158 91.439c42.546 20.479 131.322 50.48 174.635 65.123a100.961 100.961 0 0 1 69.27 104.596 1377.366 1377.366 0 0 1-93.077 419.257C807.167 857.9 629.614 967.617 563.98 1008.626a95.746 95.746 0 0 1-51.966 15.36zm0-951.147a45.054 45.054 0 0 0-26.008 7.32l-12.287 9.524a810.661 810.661 0 0 1-149.344 92.155c-46.948 22.732-135.673 52.734-183.287 68.81a30.718 30.718 0 0 0-22.424 32.203 1343.473 1343.473 0 0 0 85.91 397.958c64.918 128.813 234.535 234.126 288.65 269.299a42.033 42.033 0 0 0 33.228 0c55.55-34.405 225.167-139.77 288.651-269.3a1311.577 1311.577 0 0 0 85.91-393.605 32.254 32.254 0 0 0-20.991-32.92c-47.614-16.076-136.34-46.078-183.287-68.759a815.064 815.064 0 0 1-146.476-95.893l-13.721-10.239a33.586 33.586 0 0 0-24.575-6.605zm-48.381 644.576l-176.785-179.96a37.067 37.067 0 0 1 0-51.965 35.838 35.838 0 0 1 51.197 0l125.588 128.762 255.475-259.008a35.838 35.838 0 0 1 51.249 0 37.067 37.067 0 0 1 0 51.965L463.683 717.415z" _fill="#727CAD"></path></svg>