<svg data-v-54273173="" version="1.1" viewBox="0 0 1024 1024" class="svg-icon svg-fill" style="width: 16px; height: 16px;"><defs></defs><path pid="0" d="M950.563 501.176H840.337V72.925A73.143 73.143 0 0 0 766.83 0H73.435A73.143 73.143 0 0 0 0 72.925v878.152C0 991.305 32.914 1024 73.435 1024h877.128c40.521 0 73.436-32.695 73.436-72.923V574.172a73.143 73.143 0 0 0-73.436-72.923zm-877.128 449.9V72.926H766.83v878.152H73.435zm877.128 0H840.337V574.173h110.226V951.15zM204.361 304.715h202.02a36.718 36.718 0 0 0 36.79-36.425 36.718 36.718 0 0 0-36.717-36.498H204.361a36.718 36.718 0 0 0-36.718 36.498c0 19.968 16.457 36.425 36.718 36.425zm431.542 170.862H204.361c-20.26.073-36.572 16.31-36.718 36.425 0 20.04 16.457 36.425 36.718 36.425h431.542A36.718 36.718 0 0 0 672.767 512a36.718 36.718 0 0 0-36.718-36.499v.074zm0 243.711H204.361a36.718 36.718 0 0 0-36.718 36.425c0 20.115 16.457 36.499 36.718 36.499h431.542a36.718 36.718 0 0 0 36.79-36.499 36.718 36.718 0 0 0-36.717-36.425z"></path></svg>