<svg data-v-54273173="" version="1.1" viewBox="0 0 1024 1024" class="svg-icon svg-fill" style="width: 16px; height: 16px;"><defs></defs><path pid="0" d="M747.184 668.801A100.558 100.558 0 1 0 848.57 769.36c0-55.307-44.806-100.176-100.113-100.176l-1.273-.382zm0 148.928A48.815 48.815 0 1 1 796 768.977v.382a49.26 49.26 0 0 1-48.815 48.815v-.382zm265.206-101.004a35.195 35.195 0 0 0-33.095-32.65 56.898 56.898 0 0 1-56.898-56.897 72.065 72.065 0 0 1 5.091-21.64 42.45 42.45 0 0 0-17.82-48.369l-66.19-36.914a42.387 42.387 0 0 0-16.548-3.436 42.387 42.387 0 0 0-31.822 13.174c-12.092 12.983-28.003 22.02-45.378 25.84a88.657 88.657 0 0 1-45.824-26.286 42.45 42.45 0 0 0-31.822-13.62 42.387 42.387 0 0 0-16.548 3.437l-68.735 37.741a42.45 42.45 0 0 0-14.002 49.643c2.864 7 4.582 14.256 5.091 21.703a56.898 56.898 0 0 1-58.552 56.007h-2.546a35.195 35.195 0 0 0-32.65 32.713 359.718 359.718 0 0 0-5.537 52.188 366.287 366.287 0 0 0 5.537 52.698c1.273 17.63 15.402 31.63 33.095 32.65h2.1a55.18 55.18 0 0 1 51.743 78.536 42.45 42.45 0 0 0 15.72 50.916l64.918 36.086a42.387 42.387 0 0 0 48.815-10.183 87.383 87.383 0 0 1 46.206-28.45c18.138 4.138 34.495 14.003 46.715 28.004a44.551 44.551 0 0 0 32.65 14.002 42.387 42.387 0 0 0 17.82-4.2l65.744-36.087c15.338-11.456 21.13-31.822 14.002-49.642a68.354 68.354 0 0 1-5.092-21.64 56.898 56.898 0 0 1 57.28-57.788h2.546a35.195 35.195 0 0 0 32.713-32.204 359.223 359.223 0 0 0 7.192-52.698 359.718 359.718 0 0 0-5.537-52.634h-.382zm-49.26 87.448a108.195 108.195 0 0 0-94.576 107.431c.318 11.265 2.355 22.403 5.919 33.095l-47.543 26.349a185.46 185.46 0 0 0-19.475-16.993 103.104 103.104 0 0 0-60.716-23.358 103.104 103.104 0 0 0-59.826 22.912 236.757 236.757 0 0 0-19.475 16.548l-45.442-25.458c3.628-10.692 5.664-21.83 5.982-33.095a108.195 108.195 0 0 0-94.193-107.431 180.113 180.113 0 0 1 0-69.627 108.195 108.195 0 0 0 94.193-107.368 97.694 97.694 0 0 0-5.982-32.713l49.26-27.177c5.983 5.92 12.538 11.33 19.476 16.166 16.802 13.43 37.486 21.194 58.998 22.085a104.377 104.377 0 0 0 58.553-21.64c8.083-5.982 14.829-11.9 19.093-15.72l47.097 26.286a109.977 109.977 0 0 0-5.92 32.713 108.195 108.195 0 0 0 94.194 107.368c2.037 11.52 3.183 23.166 3.374 34.813-.255 11.71-1.273 23.294-2.992 34.814zM67.016 951.063v-56.897a373.083 373.083 0 0 1 339.48-370.156 324.622 324.622 0 0 1 35.194 0h5.538a259.605 259.605 0 0 0 138.744-42.45l16.102-12.73c63.008-48.369 99.922-123.47 99.73-202.897a260.178 260.178 0 1 0-520.228 0 254.768 254.768 0 0 0 99.73 202.898l16.548 12.729-19.093 7.637A436.409 436.409 0 0 0 0 894.166v89.993c0 18.52 15.02 33.54 33.54 33.54h489.616a366.846 366.846 0 0 1-40.287-66.635H67.017zM248.213 263.77a193.097 193.097 0 1 1 194.306 191.887h-1.273a192.206 192.206 0 0 1-193.033-191.442v-.445z"></path></svg>