<svg data-v-54273173="" version="1.1" viewBox="0 0 1024 1024" class="svg-icon svg-fill" style="width: 16px; height: 16px;"><defs></defs><path pid="0" d="M809.05 68.663c12.351 0 22.846 13.503 22.846 29.437v857.365h-639.92V98.164c0-15.998 10.495-29.373 22.845-29.373h594.23m0-68.663H214.82c-50.554 0-91.316 43.898-91.316 97.908v857.493H0V1024h1023.872v-68.535h-123.44V98.164c0-54.138-40.891-98.036-91.381-98.036zm-102.835 205.67v91.445h-388.56v-91.445h388.56m68.535-68.535h-525.63v228.515h525.63V137.263zm-399.95 570.169h137.135V433.29L374.801 707.56zm137.135-79.926v274.27L649.071 627.57H511.936z"></path></svg>