<svg data-v-54273173="" version="1.1" viewBox="0 0 1024 1024" class="svg-icon svg-fill" style="width: 16px; height: 16px;"><defs></defs><path pid="0" d="M889.583 75.98H721.92V63.694C721.92 28.467 692.224 0 655.77 0H368.23c-36.454 0-66.218 28.535-66.218 63.625v12.288H134.485c-36.454 0-66.15 28.672-66.15 63.692v820.77c0 35.09 29.696 63.625 66.15 63.625h755.03c36.454 0 66.15-28.535 66.15-63.625V139.47c-.136-35.021-29.696-63.488-66.15-63.488zM368.23 63.694h287.403v87.45H368.23V63.624zm521.353 896.546H134.485v-820.77h167.663v11.605c0 35.02 29.696 63.625 66.15 63.625h287.403c36.523 0 66.219-28.604 66.219-63.693v-11.537h167.731v820.77zM295.185 323.31a32.427 32.427 0 0 0-33.041 31.744c0 17.613 14.882 31.812 33.041 31.812h443.256c18.295 0 33.04-14.336 33.04-31.812a32.427 32.427 0 0 0-33.04-31.744H295.185zm443.256 160.085H295.185a32.427 32.427 0 0 0-33.041 31.744c0 17.477 14.882 31.744 33.041 31.744h443.256c18.295 0 33.04-14.267 33.04-31.744a32.427 32.427 0 0 0-33.04-31.744zm0 160.017h-72.363a32.427 32.427 0 0 0-32.973 31.813c0 17.476 14.882 31.744 33.041 31.744h72.295c18.295 0 33.04-14.336 33.04-31.744a32.427 32.427 0 0 0-33.04-31.813z"></path></svg>