<svg data-v-54273173="" version="1.1" viewBox="0 0 1024 1024" class="svg-icon svg-fill" style="width: 16px; height: 16px;"><defs></defs><path pid="0" d="M597.942 1023.996a36.132 36.132 0 0 1-36.717-36.791V670.498H448v316.707a36.132 36.132 0 0 1-36.571 36.79h-194.56A110.445 110.445 0 0 1 106.79 913.55V590.626H86.018a85.87 85.87 0 0 1-86.016-85.65v-.731c0-22.382 8.046-43.154 23.918-59.246L395.41 50.03a160.402 160.402 0 0 1 226.304-6.363 12.434 12.434 0 0 0 6.363 6.364L999.641 445c33.426 33.645 31.817 87.99-1.609 121.635a85.577 85.577 0 0 1-60.635 23.991h-31.89v322.998a110.445 110.445 0 0 1-109.933 110.372H597.942zm207.798-64.22c20.773 0 38.254-17.554 38.254-38.4V553.763c0-20.7 16.018-36.717 36.718-36.717h68.607c4.974-.074 9.436-3.292 11.118-8.046 1.61-4.754 1.61-9.509-3.218-14.41L573.952 89.966a86.016 86.016 0 0 0-122.733-3.218c-1.61 0-3.219 1.61-3.219 3.218L67.513 494.59a12.58 12.58 0 0 0 0 17.627c3.218 3.219 6.363 3.219 9.581 3.219h59.026c20.7 0 36.645 16.018 36.645 36.79v369.15c0 20.773 17.554 38.4 38.253 38.4h171.154V676.715a73.289 73.289 0 0 1 73.362-73.582h100.644a73.289 73.289 0 0 1 73.362 73.436l-1.61 283.134h177.884z"></path></svg>