<svg data-v-54273173="" version="1.1" viewBox="0 0 1024 1024" class="svg-icon svg-fill" style="width: 16px; height: 16px;"><defs></defs><path pid="0" d="M282.108 128.023v62.316l-115.124 1.902c-.951 511.255-.951 766.956 0 767.03h6.144c68.606.365 683.648 1.462 683.648 0V192.167H741.872v-64.145h114.904c38.326 0 57.489 21.357 57.489 63.998v767.98c0 42.642-19.163 63.999-57.489 63.999H167.203c-38.326 0-57.489-21.357-57.489-63.998V192.314c0-42.86 19.163-64.291 57.49-64.291h114.904zm373.53 383.99c15.872 0 28.745 14.336 28.745 32.036 0 17.627-12.873 31.963-28.744 31.963H540.734v63.998H655.64c15.871 0 28.744 14.336 28.744 32.036 0 17.627-12.873 31.962-28.744 31.962H540.734v96.034c0 17.627-12.873 31.963-28.744 31.963-15.872 0-28.745-14.336-28.745-31.963v-96.034H368.341c-15.872 0-28.745-14.335-28.745-31.962 0-17.7 12.873-32.036 28.745-32.036h114.904v-63.998H368.341c-15.872 0-28.745-14.336-28.745-31.963 0-17.7 12.873-32.036 28.745-32.036h287.298zM540.735.026c37.521.732 56.684 22.089 57.489 63.999h28.671c34.01 0 42.349 54.27 46.006 73.287l10.24 51.418a62.755 62.755 0 0 1-7.827 46.079 42.714 42.714 0 0 1-34.449 21.138h-37.156a34897.754 34897.754 0 0 0-218.691 0l-1.024.073a43.519 43.519 0 0 1-35.254-21.65 62.17 62.17 0 0 1-7.68-45.86l10.24-51.198c4.169-21.723 22.966-73.287 45.86-73.287h28.67c.586-43.52 19.749-64.876 57.49-63.999h57.488zm-28.89 63.999c-18.286 0-34.084 13.97-38.326 33.718l-.878 4.096-1.097 5.485c-3.95 19.748-17.481 20.699-34.523 20.699h-11.337c-19.016.366-28.525 21.577-28.671 63.633l229.809.365c.512-.073.293-63.193-28.671-63.998H586.08c-15.579 0-29.256-1.39-33.279-20.406a415.44 415.44 0 0 0-2.267-10.386c-4.608-19.602-20.48-33.28-38.765-33.28v.074z"></path><path pid="1" d="M337.914 376.41a26.843 26.843 0 0 1 42.13 0L506.65 525.252a35.254 35.254 0 0 1 5.267 8.265 29.037 29.037 0 0 1 5.046-8.265L643.497 376.41a26.843 26.843 0 0 1 42.202-.805 39.496 39.496 0 0 1 0 50.468L559.166 574.84a26.843 26.843 0 0 1-42.203 0 35.327 35.327 0 0 1-5.266-8.338l-1.536 3.438-3.51 4.973a26.843 26.843 0 0 1-42.203 0L337.914 425.926a39.496 39.496 0 0 1 0-49.59v.074z"></path></svg>