<svg data-v-26affb70="" version="1.1" viewBox="0 0 1024 1024" class="svg-icon svg-fill" style="width: 16px; height: 16px;"><defs></defs><path pid="0" d="M768 358.4h-60.262V244.736c0-103.731-87.757-188.211-195.738-188.211-108.032 0-195.738 84.48-195.738 188.211V358.4H256V244.736C256 109.773 370.842 0 512 0s256 109.773 256 244.736V358.4zm7.322 665.6H248.678c-80.742 0-146.278-66.918-146.278-149.146v-367.41c0-82.126 65.638-149.044 146.278-149.044h526.644c80.64 0 146.278 66.918 146.278 148.992v367.462c0 82.228-65.638 149.146-146.278 149.146zM248.678 418.048c-48.435 0-87.756 40.038-87.756 89.395v367.411c0 49.306 39.321 89.396 87.756 89.396h526.644c48.435 0 87.756-40.09 87.756-89.396v-367.41c0-49.358-39.321-89.396-87.756-89.396H248.678z" _fill="#727CAD"></path><path pid="1" d="M767.078 819.2H564.122c-.461 0-.922-.41-.922-.82v-49.56c0-.41.46-.82.922-.82h202.956c.461 0 .922.41.922.82v49.56c0 .513-.46.82-.922.82z" _fill="#727CAD"></path></svg>