<svg data-v-54273173="" version="1.1" viewBox="0 0 1024 1024" class="svg-icon svg-fill" style="width: 16px; height: 16px;"><defs></defs><path pid="0" d="M636.469 824.318l80.958-169.02 4.032-5.313c29.824-39.359 47.36-86.334 49.983-136.317 7.488-139.134-102.014-257.724-244.603-265.02-142.59-7.295-264.316 99.519-271.74 238.588a246.396 246.396 0 0 0 50.432 163.197l4.032 5.312 81.278 168.51H636.47zm61.247 27.776a54.029 54.029 0 0 1 7.68 27.775v88.575a56.319 56.319 0 0 1-57.087 55.55H378.233a56.319 56.319 0 0 1-56.959-55.55v-88.575c0-10.431 2.88-20.095 7.936-28.415l-77.95-161.725a311.227 311.227 0 0 1-63.615-205.949c9.408-175.357 162.877-310.138 342.714-300.922 179.837 9.215 318.01 158.845 308.602 334.202a311.675 311.675 0 0 1-63.167 172.093l-78.078 162.94zm-59.967 48.703l-248.956-.64v57.983H637.75v-57.343zM478.199 33.484A33.28 33.28 0 0 1 511.416.013a33.407 33.407 0 0 1 34.367 32.383l1.28 74.11a33.28 33.28 0 0 1-33.215 33.472 33.407 33.407 0 0 1-34.367-32.383l-1.28-74.11zm347.707 111.742a34.431 34.431 0 0 1 47.743-.704c13.44 12.672 13.76 33.472.768 46.527l-53.375 53.632a34.431 34.431 0 0 1-47.744.64 32.383 32.383 0 0 1-.704-46.528l53.312-53.567zm163.837 318.395a33.407 33.407 0 0 1 34.24 32.383 33.28 33.28 0 0 1-33.28 33.408l-76.095 1.024a33.407 33.407 0 0 1-34.24-32.448 33.28 33.28 0 0 1 33.28-33.407l76.095-1.024zM149.629 192.329a32.383 32.383 0 0 1-.768-46.527 34.431 34.431 0 0 1 47.744-.768l55.039 51.967c13.44 12.608 13.76 33.472.768 46.528a34.431 34.431 0 0 1-47.744.768l-55.039-51.968zM34.24 531.843A33.407 33.407 0 0 1 0 499.333a33.28 33.28 0 0 1 33.28-33.408l76.094-1.088a33.407 33.407 0 0 1 34.24 32.511 33.28 33.28 0 0 1-33.28 33.344l-76.095 1.151z"></path></svg>