<svg data-v-26affb70="" version="1.1" viewBox="0 0 1024 1024" class="svg-icon svg-fill" style="width: 16px;height: 16px;"><defs></defs><path pid="0" d="M757.76 1024H266.24c-61.44 0-112.64-59.546-112.64-130.97V130.97C153.6 59.546 204.8 0 266.24 0h491.52C819.2 0 870.4 59.546 870.4 130.97v762.06c0 71.424-51.2 130.97-112.64 130.97zM266.24 71.424c-28.672 0-51.2 26.214-51.2 59.546v762.06c0 33.332 22.528 59.546 51.2 59.546h491.52c28.672 0 51.2-26.214 51.2-59.546V130.97c0-33.332-22.528-59.546-51.2-59.546H266.24z" _fill="#727CAD"></path><path pid="1" d="M686.95 870.4h-298.7c-15.872 0-29.85-11.93-29.85-25.6s13.926-25.6 29.85-25.6h298.7c15.872 0 29.85 11.93 29.85 25.6s-13.926 25.6-29.85 25.6z" _fill="#727CAD"></path></svg>