<svg data-v-54273173="" version="1.1" viewBox="0 0 1024 1024" class="svg-icon svg-fill" style="width: 16px; height: 16px;"><defs></defs><path pid="0" d="M479.909 337.7c-3.071-62.367-45.582-103.514-115.32-113.476-65.438-9.28-63.05-35.415-26.612-76.425 15.831-17.74 31.662-35.755 49.062-51.995C519.554-28.386 499.492-33.64 627.23 90.754c28.728 28.045 46.401 32.071 75.401-3.412 70.83-87 189.833-93.688 263.187-19.993 74.855 75.333 72.467 174.685-17.195 249.062-50.768 42.102-33.777 62.777 2.183 98.124 96.008 94.438 96.69 99.829 3.685 195.564C830.3 737.974 702.427 862.3 576.804 988.81c-43.467 43.877-84.886 47.903-129.785 2.184C307.203 848.858 166.84 707.268 26.548 565.678c-33.777-34.118-36.575-67.213-1.024-102.696 44.831-44.626 87.001-92.119 132.924-135.449 13.852-13.1 29.342-37.12 51.86-28.522 19.31 7.37 12.01 32.412 15.42 50.017 11.738 60.389 38.896 111.157 102.014 127.806 53.702 14.193 95.735-8.052 130.331-52.473 18.56-23.815 20.061-47.766 21.836-86.66zm62.777 9.69A200.614 200.614 0 0 1 410.99 536.404c-65.848 24.156-145.548-6.482-207.097-84.135-23.678-29.819-43.807-60.116-75.605-13.51-22.86 33.64-101.4 50.358-34.46 115.66C219.383 676.97 342.55 802.116 464.351 928.42c36.984 38.28 61.89 34.46 96.759-2.32 88.434-93.347 180.62-183.078 270.488-275.128C873.426 608.12 939.684 567.52 947.53 518.39c9.69-61.208-72.74-93.347-113.613-139.475-47.288-53.36-43.535-74.718 24.496-86.864 66.462-11.873 100.717-52.952 96.691-114.296-4.094-61.822-51.518-105.084-110.543-105.425-56.977-.34-104.81 33.777-111.634 101.195-6.755 66.734-34.8 64.005-75.742 23.882-35.62-35.005-73.9-67.417-108.222-103.514-59.775-62.777-79.36 7.37-109.315 33.436-38.826 33.64-12.214 47.628 20.471 67.622 54.453 33.435 81.065 87.547 82.566 152.44z"></path></svg>