<svg data-v-54273173="" version="1.1" viewBox="0 0 1024 1024" class="svg-icon svg-fill" style="width: 16px; height: 16px;"><defs></defs><path pid="0" d="M488.11 854.016l25.28 19.52 25.28-19.52c14.977-11.136 336.385-268.864 336.385-515.456C875.055 151.872 712.943 0 513.455 0 313.903 0 151.663 151.872 151.663 338.56c0 245.184 322.944 504.32 336.32 515.456zm25.28-780.16c156.289 0 282.817 118.4 284.289 264.704 0 176.96-209.92 376.192-284.288 440.256-72.896-65.472-284.224-263.296-284.224-440.32 0-146.24 128-264.64 284.224-264.64zm187.52 260.48c-2.943-97.472-89.28-174.08-192-171.328-104.127 2.752-186.047 83.584-183.04 179.712 3.009 97.536 89.28 172.8 192 171.392 104.193-2.816 186.049-83.584 183.04-179.712zm-297.6 7.04c-1.855-56.832 45.889-104.256 106.56-105.92h.64c60.673-1.664 111.297 43.008 113.025 99.84v.448c1.792 56.832-46.016 104.192-106.688 105.856h-.384c-60.736 1.6-111.36-43.136-113.088-99.968v-.384.128zm376.513 394.24a10.048 10.048 0 0 0-8.896 0 11.264 11.264 0 0 0-5.952 5.568 85.76 85.76 0 0 1-11.904 26.496c-1.536 2.752 0 6.976 4.48 8.32 44.608 20.928 68.48 45.952 68.48 72.512 0 64-141.44 116.928-314.048 116.928-172.736 0-314.048-52.928-314.048-116.928 0-26.56 23.808-51.584 68.48-72.512 4.416-1.408 5.888-5.568 4.416-8.32-4.48-8.32-7.424-18.112-10.432-26.496a11.328 11.328 0 0 0-5.952-5.568 10.048 10.048 0 0 0-8.896 0c-75.904 29.248-117.568 69.696-117.568 112.832 0 86.4 150.272 175.552 384 175.552 258.944 0 384-89.152 384-175.488 1.408-43.2-40.256-83.648-116.16-112.896z"></path></svg>